<svg width="164" height="164" viewBox="0 0 164 164" fill="none" xmlns="http://www.w3.org/2000/svg">
<rect width="164" height="164" rx="19" fill="url(#paint0_linear_2140_2496)"/>
<ellipse cx="80.4412" cy="107.3" rx="2.8575" ry="4.76251" fill="black"/>
<ellipse cx="99.4913" cy="107.3" rx="2.8575" ry="4.76251" fill="black"/>
<ellipse cx="89.9663" cy="116.825" rx="2.8575" ry="4.76251" transform="rotate(90 89.9663 116.825)" fill="black"/>
<path fill-rule="evenodd" clip-rule="evenodd" d="M89.9662 115.873C90.4923 115.873 90.9187 116.299 90.9187 116.825L90.9187 122.54C90.9187 123.066 90.4923 123.493 89.9662 123.493C89.4402 123.493 89.0137 123.066 89.0137 122.54L89.0137 116.825C89.0137 116.299 89.4402 115.873 89.9662 115.873Z" fill="black"/>
<path fill-rule="evenodd" clip-rule="evenodd" d="M95.29 130.046L98.6212 131.109C101.134 131.911 102.555 134.52 101.787 136.924C101.636 137.4 101.409 137.832 101.125 138.213L101.091 138.291C100.219 138.893 98.8642 139.401 96.8786 139.401C95.0553 139.401 93.5872 141.135 95.9669 141.975C97.1411 142.389 98.2562 142.539 99.229 142.543C98.2858 145.494 96.1165 147.614 92.9551 148.675C90.6435 149.451 88.6148 149.386 88.5296 149.383L88.2867 149.374L88.0835 149.24C88.0122 149.194 86.3206 148.072 84.8856 146.1C83.7589 144.552 83.1009 142.909 82.9228 141.232C84.3684 142.305 86.6841 143.615 89.551 144.212C92.8373 144.897 91.6873 142.206 89.42 141.034C85.4551 138.983 84.0234 136.657 83.6969 135.396L84.1255 133.018L84.1247 133.018C84.0826 132.468 84.1427 131.904 84.3192 131.351C85.0864 128.946 87.7551 127.642 90.2682 128.444L93.5995 129.507L93.6855 129.237C94.3021 127.305 96.4468 126.257 98.4664 126.902L97.9503 128.519C96.8628 128.172 95.708 128.736 95.376 129.777L95.29 130.046Z" fill="black"/>
<path fill-rule="evenodd" clip-rule="evenodd" d="M31.4845 91.7893C27.5796 117.963 48.2121 138.548 59.8137 143.582C61.2553 143.797 63.1302 144.58 65.3148 145.493C65.7196 145.662 66.1351 145.835 66.5604 146.01L73.0673 77.7732L81.5169 93.9657H98.4161L107.634 77.7732L112.895 136.487C120.945 128.445 127.835 117.301 129.46 106.407C131.45 93.0684 127.129 83.6783 122.89 74.4688C118.812 65.6069 114.81 56.9123 116.583 45.0281C116.331 45.2544 116.056 45.4963 115.762 45.7549L115.761 45.7551C112.001 49.058 105.14 55.085 104.439 66.0083C94.941 58.8925 94.6421 29.1766 94.4885 13.9015C94.4818 13.2395 94.4755 12.6047 94.4686 12C91.9318 14.9036 88.7502 17.9243 85.3357 21.166C74.6608 31.301 61.7108 43.596 59.0809 61.223C57.8082 69.7535 58.5818 77.9948 59.1276 81.0491C59.1276 81.0491 50.1978 73.7711 52.3999 52.2986C48.047 54.622 34.811 69.4935 31.4845 91.7893ZM64.4935 143.078L66.7786 121.293L58.7486 124.705L53.3345 111.962L51.0974 134.344L59.302 130.858L64.4935 143.078Z" fill="black"/>
<defs>
<linearGradient id="paint0_linear_2140_2496" x1="196" y1="-37.5" x2="-35" y2="214.5" gradientUnits="userSpaceOnUse">
<stop/>
<stop offset="1" stop-color="white"/>
</linearGradient>
</defs>
</svg>
